<svg width="3642" height="1925" viewBox="0 0 3642 1925" fill="none" xmlns="http://www.w3.org/2000/svg">
<g clip-path="url(#clip0_1553_8395)">
<path d="M235 898H295V922H55V898H115V176H55V152H635V176H575V898H635V922H395V898H455V176H235V898ZM947.43 898H994.43V922H740.43V898H803.43C801.43 891 792.43 865 792.43 844C792.43 777 823.43 716 873.43 654C940.43 572 1006.43 531 1054.43 465C1090.43 416 1118.43 356 1130.43 286V176H1070.43V152H1310.43V176H1250.43V898H1310.43V922H1070.43V898H1130.43V384C1118.43 416 1102.43 451 1078.43 485C1028.43 556 997.43 603 960.43 682C933.43 739 925.43 788 925.43 846C925.43 868 936.43 888 947.43 898ZM1712.52 297C1706.52 297 1701.52 294 1701.52 287C1701.52 282 1704.52 276 1710.52 276H1776.52C1777.52 272 1777.52 270 1777.52 265C1777.52 207 1720.52 166 1662.52 166C1522.52 166 1507.52 270 1507.52 369C1507.52 416 1523.52 473 1536.52 536C1584.52 480 1672.52 379 1767.52 379H1770.52C1840.52 379 1897.52 437 1910.52 485C1921.52 522 1924.52 556 1924.52 581V592H1946.52C1953.52 592 1957.52 596 1957.52 602C1957.52 608 1953.52 613 1946.52 613H1761.52C1755.52 613 1751.52 609 1751.52 603C1751.52 597 1755.52 592 1761.52 592H1808.52C1808.52 571 1807.52 549 1802.52 522C1794.52 478 1762.52 449 1714.52 449C1685.52 449 1653.52 466 1629.52 485C1606.52 503 1568.52 538 1542.52 564C1558.52 652 1559.52 745 1559.52 817C1559.52 848 1549.52 885 1539.52 901C1557.52 904 1565.52 905 1583.52 905C1672.52 905 1750.52 812 1750.52 746L1701.52 731C1696.52 729 1693.52 726 1693.52 718C1693.52 711 1701.52 706 1707.52 707L1916.52 768C1921.52 770 1924.52 775 1924.52 780C1924.52 787 1919.52 794 1910.52 792L1871.52 781C1846.52 851 1713.52 930 1582.52 930C1549.52 930 1521.52 927 1496.52 922C1490.52 921 1488.52 916 1488.52 911C1488.52 904 1490.52 897 1492.52 894C1503.52 873 1507.52 850 1507.52 827C1507.52 756 1458.52 688 1435.52 628C1405.52 549 1386.52 499 1386.52 415C1386.52 256 1514.52 144 1661.52 144C1820.52 144 1876.52 208 1897.52 276H1936.52C1942.52 276 1947.52 280 1947.52 287C1947.52 293 1943.52 297 1937.52 297H1712.52ZM2209.9 1.99998C2221.9 32 2262.9 68 2297.9 68H2300.9C2337.9 68 2379.9 28.9999 2388.9 -5.05447e-05L2416.9 8.99995C2404.9 53 2350.9 115 2292.9 115H2285.9C2241.9 115 2200.9 64 2181.9 17L2209.9 1.99998ZM2245.9 922H2005.9V898H2065.9V176H2005.9V152H2245.9V176H2185.9V524L2385.9 427V176H2325.9V152H2565.9V176H2505.9V898H2565.9V922H2325.9V898H2385.9V454L2185.9 551V898H2245.9V922ZM3167.92 611H3146.92C3146.92 763 3034.92 874 2913.92 913C2881.92 924 2853.92 928 2808.92 928C2797.92 928 2792.92 921 2792.92 912C2792.92 900 2796.92 889 2796.92 876C2796.92 812 2761.92 760 2721.92 710C2667.92 643 2639.92 576 2639.92 482C2639.92 337 2758.92 175 2880.92 147C2887.92 145 2896.92 144 2904.92 144C2912.92 144 2920.92 145 2927.92 147C3020.92 172 3125.92 273 3136.92 380H3158.92C3165.92 380 3168.92 386 3168.92 392C3168.92 399 3165.92 405 3158.92 405H2960.92C2953.92 405 2950.92 399 2950.92 392C2950.92 386 2953.92 380 2960.92 380H3011.92C3011.92 293 2968.92 200 2909.92 169C2905.92 167 2900.92 166 2895.92 166C2888.92 166 2882.92 168 2877.92 170C2796.92 209 2772.92 367 2772.92 480C2772.92 567 2780.92 637 2796.92 702C2812.92 767 2827.92 804 2827.92 871C2827.92 879 2826.92 886 2826.92 892C2826.92 896 2826.92 899 2827.92 903H2840.92C2870.92 903 2897.92 895 2914.92 880C2972.92 829 3015.92 749 3015.92 643V611H2969.92C2962.92 611 2958.92 605 2958.92 598C2958.92 592 2962.92 586 2969.92 586H3167.92C3174.92 586 3178.92 592 3178.92 598C3178.92 605 3174.92 611 3167.92 611ZM155 1585C155 1544 190 1519 224 1519C231 1519 237 1520 243 1522L299 1412L112 1026H50V1002H323V1026H245L368 1280L438 1144C462 1098 495 1045 516 1026C532 1011 561 997 601 997C616 997 657 999 657 1014C657 1017 656 1020 653 1023C640 1037 627 1060 627 1096C627 1115 629 1138 640 1165C644 1176 634 1181 627 1172C603 1141 570 1102 527 1102C488 1102 476 1126 461 1154L381 1308L596 1748H658V1772H385V1748H463L313 1440L265 1533C282 1546 291 1567 291 1588C291 1629 257 1655 223 1655C216 1655 210 1657 204 1655L155 1748H235V1772H64V1748H126L181 1640C165 1627 155 1606 155 1585ZM1004.4 1706C972.398 1732 907.398 1781 853.398 1781C846.398 1781 840.398 1777 840.398 1772V1742C840.398 1704 797.398 1630 770.398 1590C725.398 1524 673.398 1450 673.398 1340C673.398 1211 778.398 1097 831.398 1054C871.398 1021 920.398 994 986.398 994C992.398 994 998.398 999 998.398 1004V1045C998.398 1108 1051.4 1162 1095.4 1233C1133.4 1295 1152.4 1335 1152.4 1412C1152.4 1557 1078.4 1644 1004.4 1706ZM1028.4 1457C1028.4 1365 1017.4 1315 995.398 1234C979.398 1176 973.398 1126 973.398 1077V1019C932.398 1019 907.398 1025 872.398 1055C824.398 1097 799.398 1234 799.398 1341C799.398 1450 815.398 1561 840.398 1619C853.398 1649 864.398 1706 864.398 1732V1756C881.398 1756 891.398 1749 910.398 1740C927.398 1732 933.398 1727 954.398 1709C990.398 1678 1028.4 1552 1028.4 1457ZM1350.98 1748H1397.98V1772H1143.98V1748H1206.98C1204.98 1741 1195.98 1715 1195.98 1694C1195.98 1627 1226.98 1566 1276.98 1504C1343.98 1422 1409.98 1381 1457.98 1315C1493.98 1266 1521.98 1206 1533.98 1136V1026H1473.98V1002H1713.98V1026H1653.98V1748H1713.98V1772H1473.98V1748H1533.98V1234C1521.98 1266 1505.98 1301 1481.98 1335C1431.98 1406 1400.98 1453 1363.98 1532C1336.98 1589 1328.98 1638 1328.98 1696C1328.98 1718 1339.98 1738 1350.98 1748ZM2108.02 1121H2114.02C2149.02 1121 2184.02 1139 2200.02 1169V1026H2140.02V1002H2380.02V1026H2320.02V1748H2401.02C2409.02 1748 2411.02 1755 2411.02 1762C2411.02 1766 2410.02 1770 2409.02 1772C2400.02 1791 2387.02 1816 2375.02 1843C2364.02 1869 2354.02 1897 2348.02 1920C2347.02 1923 2345.02 1925 2343.02 1925C2340.02 1925 2337.02 1923 2335.02 1920C2314.02 1885 2282.02 1816 2263.02 1772H1945.02C1926.02 1816 1894.02 1885 1873.02 1920C1871.02 1923 1868.02 1925 1865.02 1925C1863.02 1925 1861.02 1923 1860.02 1920C1847.02 1874 1818.02 1811 1799.02 1772C1798.02 1770 1797.02 1766 1797.02 1762C1797.02 1755 1799.02 1748 1807.02 1748H1890.02C1883.02 1723 1880.02 1681 1880.02 1648C1880.02 1577 1908.02 1520 1949.02 1471C1994.02 1417 2054.02 1372 2108.02 1326C2149.02 1291 2183.02 1244 2183.02 1206C2183.02 1196 2181.02 1184 2171.02 1171C2173.02 1179 2173.02 1186 2173.02 1194C2173.02 1228 2141.02 1253 2108.02 1253H2102.02C2068.02 1253 2041.02 1221 2041.02 1187V1182C2041.02 1148 2074.02 1121 2108.02 1121ZM2200.02 1748V1250C2185.02 1286 2154.02 1313 2125.02 1354C2089.02 1405 2055.02 1452 2030.02 1499C2004.02 1547 1988.02 1595 1988.02 1645C1988.02 1683 1991.02 1721 2004.02 1748H2200.02ZM2774.52 1147C2768.52 1147 2763.52 1144 2763.52 1137C2763.52 1132 2766.52 1126 2772.52 1126H2838.52C2839.52 1122 2839.52 1120 2839.52 1115C2839.52 1057 2782.52 1016 2724.52 1016C2584.52 1016 2569.52 1120 2569.52 1219C2569.52 1266 2585.52 1323 2598.52 1386C2646.52 1330 2734.52 1229 2829.52 1229H2832.52C2902.52 1229 2959.52 1287 2972.52 1335C2983.52 1372 2986.52 1406 2986.52 1431V1442H3008.52C3015.52 1442 3019.52 1446 3019.52 1452C3019.52 1458 3015.52 1463 3008.52 1463H2823.52C2817.52 1463 2813.52 1459 2813.52 1453C2813.52 1447 2817.52 1442 2823.52 1442H2870.52C2870.52 1421 2869.52 1399 2864.52 1372C2856.52 1328 2824.52 1299 2776.52 1299C2747.52 1299 2715.52 1316 2691.52 1335C2668.52 1353 2630.52 1388 2604.52 1414C2620.52 1502 2621.52 1595 2621.52 1667C2621.52 1698 2611.52 1735 2601.52 1751C2619.52 1754 2627.52 1755 2645.52 1755C2734.52 1755 2812.52 1662 2812.52 1596L2763.52 1581C2758.52 1579 2755.52 1576 2755.52 1568C2755.52 1561 2763.52 1556 2769.52 1557L2978.52 1618C2983.52 1620 2986.52 1625 2986.52 1630C2986.52 1637 2981.52 1644 2972.52 1642L2933.52 1631C2908.52 1701 2775.52 1780 2644.52 1780C2611.52 1780 2583.52 1777 2558.52 1772C2552.52 1771 2550.52 1766 2550.52 1761C2550.52 1754 2552.52 1747 2554.52 1744C2565.52 1723 2569.52 1700 2569.52 1677C2569.52 1606 2520.52 1538 2497.52 1478C2467.52 1399 2448.52 1349 2448.52 1265C2448.52 1106 2576.52 994 2723.52 994C2882.52 994 2938.52 1058 2959.52 1126H2998.52C3004.52 1126 3009.52 1130 3009.52 1137C3009.52 1143 3005.52 1147 2999.52 1147H2774.52ZM3412.61 994C3521.61 994 3616.61 1053 3616.61 1161C3616.61 1255 3567.61 1335 3474.61 1335C3428.61 1335 3389.61 1315 3363.61 1297L3244.61 1438V1748H3304.61V1772H3064.61V1748H3124.61V1181C3124.61 1149 3141.61 1108 3157.61 1089C3189.61 1052 3281.61 994 3412.61 994ZM3244.61 1147V1401L3354.61 1271C3357.61 1267 3362.61 1267 3365.61 1269C3366.61 1269 3368.61 1270 3369.61 1270C3382.61 1280 3398.61 1291 3420.61 1291C3471.61 1291 3502.61 1214 3502.61 1160C3502.61 1085 3465.61 1024 3379.61 1024C3328.61 1024 3285.61 1047 3267.61 1069C3249.61 1090 3244.61 1120 3244.61 1147Z" fill="black"/>
</g>
<defs>
<clipPath id="clip0_1553_8395">
<rect width="3642" height="1925" fill="white"/>
</clipPath>
</defs>
</svg>
