<svg width="1307" height="131" viewBox="0 0 1307 131" fill="none" xmlns="http://www.w3.org/2000/svg">
<path d="M27.1362 117.421C21.5068 115.104 16.7436 111.55 12.702 106.761C8.66047 102.126 5.48496 96.2552 3.31985 89.3026C1.15473 82.35 0 74.4705 0 65.3549C0 56.2393 1.15473 48.2052 3.31985 41.2527C5.48496 34.3001 8.66047 28.5836 12.702 23.794C16.7436 19.159 21.5068 15.6054 27.1362 13.2879C32.7654 10.9704 38.8278 9.73438 45.4674 9.73438C55.2826 9.73438 63.6545 12.2064 70.7272 17.1504C77.6555 22.249 82.9962 29.8196 86.6047 39.8622H73.614C70.7272 33.2186 66.9743 28.5836 62.3554 25.648C57.5922 22.7125 51.9628 21.322 45.4674 21.322C40.5599 21.322 36.0853 22.249 32.0437 24.103C28.0022 26.1115 24.538 28.8926 21.6512 32.6006C18.62 36.3086 16.3106 40.9437 14.7228 46.3512C13.135 51.9133 12.269 58.2478 12.269 65.3549C12.269 72.462 13.135 78.7965 14.7228 84.2041C16.3106 89.7661 18.62 94.4012 21.6512 98.1092C24.538 101.817 28.0022 104.598 32.0437 106.452C36.0853 108.461 40.5599 109.388 45.4674 109.388C50.3751 109.388 54.994 108.461 58.8912 106.452C62.7884 104.444 65.9639 101.972 68.5621 98.7272C71.1602 95.6372 73.181 92.0836 74.48 88.0666C75.7791 84.2041 76.5008 80.187 76.5008 76.17H45.4674V64.5824H88.7699V70.7625C88.7699 78.4875 87.7594 85.4401 85.7386 91.6201C83.7179 97.8002 80.8311 103.053 77.0782 107.379C73.3253 111.859 68.8508 115.104 63.5101 117.421C58.1695 119.739 52.1072 120.975 45.4674 120.975C38.8278 120.975 32.7654 119.739 27.1362 117.421Z" fill="#0021F5"/>
<path d="M142.175 11.2793L180.425 119.43H168.156L158.774 92.3925H111.863L102.481 119.43H90.2119L128.462 11.2793H142.175ZM135.679 25.9569H134.958L116.194 80.8049H154.444L135.679 25.9569Z" fill="#0021F5"/>
<path d="M225.891 11.2793C230.798 11.2793 235.272 12.0518 239.17 13.5968C243.067 15.1418 246.387 17.3049 249.129 20.2404C251.872 23.1759 253.893 26.5749 255.48 30.4375C256.923 34.4545 257.645 38.9351 257.645 43.7246C257.645 49.1321 256.779 53.7672 255.191 57.6297C253.459 61.4923 251.294 64.7368 248.552 67.3633C245.81 69.9898 242.923 71.9983 239.747 73.3889C236.427 74.7794 233.252 75.7064 230.221 76.1699L259.089 119.43H245.376L216.508 76.1699H199.187V119.43H186.918V11.2793H225.891ZM240.18 58.7112C243.644 54.8487 245.376 49.9047 245.376 43.7246C245.376 37.5445 243.644 32.446 240.18 28.5835C236.716 24.7209 231.664 22.8669 225.169 22.8669H199.187V64.5823H225.169C231.664 64.5823 236.716 62.5738 240.18 58.7112Z" fill="#0021F5"/>
<path d="M315.391 11.2793L353.642 119.43H341.372L331.991 92.3925H285.08L275.697 119.43H263.429L301.679 11.2793H315.391ZM308.896 25.9569H308.174L289.41 80.8049H327.66L308.896 25.9569Z" fill="#0021F5"/>
<path d="M379.33 117.421C373.7 115.104 368.938 111.55 364.895 106.761C360.854 102.126 357.678 96.2552 355.514 89.3026C353.348 82.35 352.193 74.4705 352.193 65.3549C352.193 56.2393 353.348 48.2052 355.514 41.2527C357.678 34.3001 360.854 28.5836 364.895 23.794C368.938 19.159 373.7 15.6054 379.33 13.2879C384.959 10.9704 391.021 9.73438 397.661 9.73438C407.476 9.73438 415.848 12.2064 422.921 17.1504C429.849 22.249 435.19 29.8196 438.798 39.8622H425.808C422.921 33.2186 419.168 28.5836 414.549 25.648C409.785 22.7125 404.157 21.322 397.661 21.322C392.753 21.322 388.279 22.249 384.238 24.103C380.196 26.1115 376.732 28.8926 373.845 32.6006C370.814 36.3086 368.504 40.9437 366.917 46.3512C365.329 51.9133 364.463 58.2478 364.463 65.3549C364.463 72.462 365.329 78.7965 366.917 84.2041C368.504 89.7661 370.814 94.4012 373.845 98.1092C376.732 101.817 380.196 104.598 384.238 106.452C388.279 108.461 392.753 109.388 397.661 109.388C402.568 109.388 407.187 108.461 411.085 106.452C414.982 104.444 418.157 101.972 420.756 98.7272C423.354 95.6372 425.375 92.0836 426.674 88.0666C427.973 84.2041 428.694 80.187 428.694 76.17H397.661V64.5824H440.964V70.7625C440.964 78.4875 439.953 85.4401 437.932 91.6201C435.911 97.8002 433.025 103.053 429.272 107.379C425.519 111.859 421.045 115.104 415.704 117.421C410.363 119.739 404.301 120.975 397.661 120.975C391.021 120.975 384.959 119.739 379.33 117.421Z" fill="#0021F5"/>
<path d="M518.186 11.2793V22.8669H466.945V59.1747H515.3V70.7623H466.945V107.843H519.63V119.43H454.677V11.2793H518.186Z" fill="#0021F5"/>
<path d="M534.93 117.73C533.342 116.03 532.62 114.022 532.62 111.704C532.62 109.387 533.342 107.379 534.93 105.679C536.518 103.98 538.394 103.207 540.559 103.207C542.724 103.207 544.601 103.98 546.188 105.679C547.776 107.379 548.498 109.387 548.498 111.704C548.498 114.022 547.776 116.03 546.188 117.73C544.601 119.429 542.724 120.202 540.559 120.202C538.394 120.202 536.518 119.429 534.93 117.73Z" fill="#0021F5"/>
<path d="M599.742 11.2793C606.381 11.2793 612.444 12.3608 618.073 14.6783C623.702 16.9958 628.466 20.5494 632.507 25.0299C636.549 29.5105 639.724 35.227 641.89 41.8706C644.054 48.6686 645.209 56.5482 645.209 65.3548C645.209 74.1614 644.054 82.0409 641.89 88.6845C639.724 95.4826 636.549 101.199 632.507 105.68C628.466 110.16 623.702 113.559 618.073 115.876C612.444 118.194 606.381 119.43 599.742 119.43H565.821V11.2793H599.742ZM613.166 105.062C617.207 103.362 620.671 100.581 623.702 97.0276C626.589 93.474 628.899 88.9935 630.486 83.7405C632.075 78.4874 632.941 72.3074 632.941 65.3548C632.941 58.4022 632.075 52.3767 630.486 46.9691C628.899 41.7161 626.589 37.2355 623.702 33.682C620.671 30.1285 617.207 27.3474 613.166 25.4934C609.124 23.7939 604.649 22.8669 599.742 22.8669H578.091V107.843H599.742C604.649 107.843 609.124 106.916 613.166 105.062Z" fill="#0021F5"/>
<path d="M671.19 11.2793V119.43H658.922V11.2793H671.19Z" fill="#0021F5"/>
<path d="M712.039 117.421C706.409 115.104 701.646 111.55 697.604 106.761C693.563 102.126 690.387 96.2552 688.223 89.3026C686.057 82.35 684.902 74.4705 684.902 65.3549C684.902 56.2393 686.057 48.2052 688.223 41.2527C690.387 34.3001 693.563 28.5836 697.604 23.794C701.646 19.159 706.409 15.6054 712.039 13.2879C717.668 10.9704 723.73 9.73438 730.37 9.73438C740.185 9.73438 748.557 12.2064 755.63 17.1504C762.558 22.249 767.899 29.8196 771.507 39.8622H758.517C755.63 33.2186 751.877 28.5836 747.258 25.648C742.494 22.7125 736.866 21.322 730.37 21.322C725.462 21.322 720.988 22.249 716.947 24.103C712.905 26.1115 709.441 28.8926 706.553 32.6006C703.523 36.3086 701.213 40.9437 699.625 46.3512C698.038 51.9133 697.172 58.2478 697.172 65.3549C697.172 72.462 698.038 78.7965 699.625 84.2041C701.213 89.7661 703.523 94.4012 706.553 98.1092C709.441 101.817 712.905 104.598 716.947 106.452C720.988 108.461 725.462 109.388 730.37 109.388C735.277 109.388 739.896 108.461 743.794 106.452C747.691 104.444 750.866 101.972 753.464 98.7272C756.062 95.6372 758.084 92.0836 759.383 88.0666C760.682 84.2041 761.403 80.187 761.403 76.17H730.37V64.5824H773.673V70.7625C773.673 78.4875 772.662 85.4401 770.641 91.6201C768.62 97.8002 765.734 103.053 761.981 107.379C758.228 111.859 753.753 115.104 748.413 117.421C743.072 119.739 737.01 120.975 730.37 120.975C723.73 120.975 717.668 119.739 712.039 117.421Z" fill="#0021F5"/>
<path d="M802.531 11.2793V119.43H790.263V11.2793H802.531Z" fill="#0021F5"/>
<path d="M812.637 22.8669V11.2793H889.859V22.8669H857.382V119.43H845.114V22.8669H812.637Z" fill="#0021F5"/>
<path d="M926.669 11.2793L964.919 119.43H952.652L943.273 92.3925H896.358L886.975 119.43H874.706L912.957 11.2793H926.669ZM920.174 25.9569H919.452L900.688 80.8049H938.938L920.174 25.9569Z" fill="#0021F5"/>
<path d="M986.575 11.2793V107.843H1037.82V119.43H974.309V11.2793H986.575Z" fill="#0021F5"/>
</svg>
