<svg width="1111" height="112" viewBox="0 0 1111 112" fill="none" xmlns="http://www.w3.org/2000/svg">
<g clip-path="url(#clip0_11449_40622)">
<path d="M29.0463 107.687C23.0207 105.37 17.9222 101.816 13.5961 97.0269C9.27008 92.3918 5.87105 86.5208 3.55353 79.5682C1.23601 72.6156 0 64.7361 0 55.6205C0 46.5049 1.23601 38.4708 3.55353 31.5183C5.87105 24.5657 9.27008 18.8492 13.5961 14.0596C17.9222 9.42458 23.0207 5.87105 29.0463 3.55353C35.0718 1.23601 41.5609 0 48.6679 0C59.174 0 68.1351 2.47202 75.7057 7.41606C83.1217 12.5146 88.8383 20.0852 92.7008 30.1278H78.7957C75.7057 23.4842 71.6886 18.8492 66.7446 15.9136C61.6461 12.9781 55.6205 11.5876 48.6679 11.5876C43.4149 11.5876 38.6253 12.5146 34.2993 14.3686C29.9733 16.3771 26.2652 19.1582 23.1752 22.8662C19.9307 26.5742 17.4587 31.2093 15.7591 36.6168C14.0596 42.1789 13.1326 48.5134 13.1326 55.6205C13.1326 62.7276 14.0596 69.0621 15.7591 74.4697C17.4587 80.0317 19.9307 84.6668 23.1752 88.3748C26.2652 92.0828 29.9733 94.8638 34.2993 96.7179C38.6253 98.7264 43.4149 99.6534 48.6679 99.6534C53.921 99.6534 58.865 98.7264 63.0366 96.7179C67.2081 94.7093 70.6071 92.2373 73.3882 88.9928C76.1692 85.9028 78.3322 82.3492 79.7227 78.3322C81.1132 74.4697 81.8857 70.4526 81.8857 66.4356H48.6679V54.848H95.0184V61.0281C95.0184 68.7531 93.9368 75.7057 91.7738 81.8857C89.6108 88.0658 86.5208 93.3188 82.5037 97.6449C78.4867 102.125 73.6972 105.37 67.9806 107.687C62.2641 110.005 55.775 111.241 48.6679 111.241C41.5609 111.241 35.0718 110.005 29.0463 107.687Z" fill="#0021F5"/>
<path d="M152.182 1.54688L193.125 109.698H179.992L169.95 82.6601H119.737L109.694 109.698H96.5615L137.504 1.54688H152.182ZM145.229 16.2245H144.457L124.372 71.0725H165.315L145.229 16.2245Z" fill="#0021F5"/>
<path d="M241.791 1.54688C247.044 1.54688 251.833 2.31939 256.005 3.8644C260.176 5.40942 263.73 7.57243 266.665 10.508C269.601 13.4435 271.764 16.8425 273.463 20.7051C275.008 24.7221 275.781 29.2027 275.781 33.9922C275.781 39.3997 274.854 44.0348 273.154 47.8973C271.3 51.7599 268.983 55.0044 266.047 57.6309C263.112 60.2574 260.022 62.2659 256.623 63.6565C253.069 65.047 249.67 65.974 246.426 66.4375L277.326 109.698H262.648L231.748 66.4375H213.208V109.698H200.075V1.54688H241.791ZM257.086 48.9788C260.794 45.1163 262.648 40.1723 262.648 33.9922C262.648 27.8121 260.794 22.7136 257.086 18.8511C253.378 14.9885 247.971 13.1345 241.018 13.1345H213.208V54.8499H241.018C247.971 54.8499 253.378 52.8414 257.086 48.9788Z" fill="#0021F5"/>
<path d="M337.591 1.54688L378.534 109.698H365.401L355.359 82.6601H305.146L295.103 109.698H281.971L322.914 1.54688H337.591ZM330.639 16.2245H329.866L309.781 71.0725H350.724L330.639 16.2245Z" fill="#0021F5"/>
<path d="M406.031 107.687C400.005 105.37 394.907 101.816 390.58 97.0269C386.254 92.3918 382.855 86.5208 380.538 79.5682C378.22 72.6156 376.984 64.7361 376.984 55.6205C376.984 46.5049 378.22 38.4708 380.538 31.5183C382.855 24.5657 386.254 18.8492 390.58 14.0596C394.907 9.42458 400.005 5.87105 406.031 3.55353C412.056 1.23601 418.545 0 425.652 0C436.158 0 445.119 2.47202 452.69 7.41606C460.106 12.5146 465.823 20.0852 469.685 30.1278H455.78C452.69 23.4842 448.673 18.8492 443.729 15.9136C438.63 12.9781 432.605 11.5876 425.652 11.5876C420.399 11.5876 415.61 12.5146 411.284 14.3686C406.958 16.3771 403.25 19.1582 400.16 22.8662C396.915 26.5742 394.443 31.2093 392.744 36.6168C391.044 42.1789 390.117 48.5134 390.117 55.6205C390.117 62.7276 391.044 69.0621 392.744 74.4697C394.443 80.0317 396.915 84.6668 400.16 88.3748C403.25 92.0828 406.958 94.8638 411.284 96.7179C415.61 98.7264 420.399 99.6534 425.652 99.6534C430.905 99.6534 435.849 98.7264 440.021 96.7179C444.192 94.7093 447.591 92.2373 450.373 88.9928C453.154 85.9028 455.317 82.3492 456.707 78.3322C458.098 74.4697 458.87 70.4526 458.87 66.4356H425.652V54.848H472.003V61.0281C472.003 68.7531 470.921 75.7057 468.758 81.8857C466.595 88.0658 463.505 93.3188 459.488 97.6449C455.471 102.125 450.682 105.37 444.965 107.687C439.248 110.005 432.759 111.241 425.652 111.241C418.545 111.241 412.056 110.005 406.031 107.687Z" fill="#0021F5"/>
<path d="M554.662 1.54688V13.1345H499.814V49.4423H551.572V61.0299H499.814V98.1103H556.207V109.698H486.682V1.54688H554.662Z" fill="#0021F5"/>
<path d="M572.583 107.996C570.884 106.296 570.111 104.288 570.111 101.97C570.111 99.6527 570.884 97.6442 572.583 95.9447C574.283 94.2452 576.291 93.4727 578.609 93.4727C580.926 93.4727 582.935 94.2452 584.634 95.9447C586.334 97.6442 587.106 99.6527 587.106 101.97C587.106 104.288 586.334 106.296 584.634 107.996C582.935 109.695 580.926 110.468 578.609 110.468C576.291 110.468 574.283 109.695 572.583 107.996Z" fill="#0021F5"/>
<path d="M641.958 1.54688C649.065 1.54688 655.554 2.62839 661.58 4.94591C667.605 7.26343 672.704 10.817 677.03 15.2975C681.356 19.7781 684.755 25.4946 687.073 32.1382C689.39 38.9362 690.626 46.8158 690.626 55.6224C690.626 64.429 689.39 72.3085 687.073 78.9521C684.755 85.7502 681.356 91.4667 677.03 95.9473C672.704 100.428 667.605 103.827 661.58 106.144C655.554 108.462 649.065 109.698 641.958 109.698H605.65V1.54688H641.958ZM656.327 95.3292C660.653 93.6297 664.361 90.8487 667.605 87.2952C670.695 83.7416 673.168 79.2611 674.867 74.0081C676.567 68.755 677.494 62.575 677.494 55.6224C677.494 48.6698 676.567 42.6443 674.867 37.2367C673.168 31.9837 670.695 27.5031 667.605 23.9496C664.361 20.3961 660.653 17.615 656.327 15.761C652.001 14.0615 647.211 13.1345 641.958 13.1345H618.783V98.1103H641.958C647.211 98.1103 652.001 97.1833 656.327 95.3292Z" fill="#0021F5"/>
<path d="M718.435 1.54688V109.698H705.303V1.54688H718.435Z" fill="#0021F5"/>
<path d="M762.16 107.687C756.134 105.37 751.035 101.816 746.709 97.0269C742.383 92.3918 738.984 86.5208 736.667 79.5682C734.349 72.6156 733.113 64.7361 733.113 55.6205C733.113 46.5049 734.349 38.4708 736.667 31.5183C738.984 24.5657 742.383 18.8492 746.709 14.0596C751.035 9.42458 756.134 5.87105 762.16 3.55353C768.185 1.23601 774.674 0 781.781 0C792.287 0 801.248 2.47202 808.819 7.41606C816.235 12.5146 821.952 20.0852 825.814 30.1278H811.909C808.819 23.4842 804.802 18.8492 799.858 15.9136C794.759 12.9781 788.734 11.5876 781.781 11.5876C776.528 11.5876 771.739 12.5146 767.413 14.3686C763.087 16.3771 759.379 19.1582 756.288 22.8662C753.044 26.5742 750.572 31.2093 748.872 36.6168C747.173 42.1789 746.246 48.5134 746.246 55.6205C746.246 62.7276 747.173 69.0621 748.872 74.4697C750.572 80.0317 753.044 84.6668 756.288 88.3748C759.379 92.0828 763.087 94.8638 767.413 96.7179C771.739 98.7264 776.528 99.6534 781.781 99.6534C787.034 99.6534 791.978 98.7264 796.15 96.7179C800.321 94.7093 803.72 92.2373 806.501 88.9928C809.282 85.9028 811.446 82.3492 812.836 78.3322C814.227 74.4697 814.999 70.4526 814.999 66.4356H781.781V54.848H828.132V61.0281C828.132 68.7531 827.05 75.7057 824.887 81.8857C822.724 88.0658 819.634 93.3188 815.617 97.6449C811.6 102.125 806.81 105.37 801.094 107.687C795.377 110.005 788.888 111.241 781.781 111.241C774.674 111.241 768.185 110.005 762.16 107.687Z" fill="#0021F5"/>
<path d="M859.021 1.54688V109.698H845.889V1.54688H859.021Z" fill="#0021F5"/>
<path d="M869.838 13.1345V1.54688H952.496V13.1345H917.733V109.698H904.601V13.1345H869.838Z" fill="#0021F5"/>
<path d="M991.898 1.54688L1032.84 109.698H1019.71L1009.67 82.6601H959.453L949.41 109.698H936.277L977.22 1.54688H991.898ZM984.945 16.2245H984.173L964.088 71.0725H1005.03L984.945 16.2245Z" fill="#0021F5"/>
<path d="M1056.02 1.54688V98.1103H1110.87V109.698H1042.89V1.54688H1056.02Z" fill="#0021F5"/>
</g>
<defs>
<clipPath id="clip0_11449_40622">
<rect width="1111" height="112" fill="white"/>
</clipPath>
</defs>
</svg>
